# xmcd
#
# Track frame offsets:
#	150
#	27509
#	52740
#	68125
#	89356
#	122037
#	149291
#	171662
#
# Disc length: 2689 seconds
#
# Revision: 0
# Processed by: cddbd v1.5.1PL2 Copyright (c) Steve Scherf et al.
# Submitted via: dBpowerAMP V4.0
#
DISCID=6f0a7f08
DTITLE=Various Artist - Libaas - Ijaazat
DYEAR=1900
DGENRE=Hindi
TTITLE0=Libaas - Ijaazat - Khamosh sa afsana
TTITLE1=Sili hawa choo gayi
TTITLE2=Kya bura hai kya bhala
TTITLE3=Phir kisi shak ne
TTITLE4=Choti si kahani se
TTITLE5=Katra katra
TTITLE6=Khali hath sham aayi hai
TTITLE7=Mera kuch saamam
EXTD=Tarun
EXTT0=
EXTT1=
EXTT2=
EXTT3=
EXTT4=
EXTT5=
EXTT6=
EXTT7=
PLAYORDER=
